<svg xmlns="http://www.w3.org/2000/svg" width="337" height="29" viewBox="0 0 337 29">
  <defs>
    <style>
      .cls-1 {
        fill-rule: evenodd;
      }
    </style>
  </defs>
  <g id="Artboard_1" data-name="Artboard 1">
    <path id="Terminal_Veeloy" data-name="Terminal Veeloy" class="cls-1" d="M739.434,995.677H728a0.888,0.888,0,0,0-.88.879v1.96h4.039v24.554a0.654,0.654,0,0,0,.8.6H734V999.2a0.738,0.738,0,0,1,.72-0.68h2.239a1.515,1.515,0,0,0,1.52-.76Zm16,25.153v-9.72a0.7,0.7,0,0,1,.68-0.68h1.2a1.558,1.558,0,0,0,1.52-.76c0.12-.24.6-1.4,0.92-2.12h-4.32v-8.314a0.651,0.651,0,0,1,.68-0.68h2.32a1.529,1.529,0,0,0,1.52-.8l0.96-2.079h-7.479a0.875,0.875,0,0,0-.88.8v27.194h6.4a1.631,1.631,0,0,0,1.56-.76c0.12-.24.6-1.36,0.919-2.08h-6Zm28.679,2.84v-10.72s0.08-2.08-1.04-2.64c1.16-.28,1.04-2.48,1.04-2.48V999.2a3.523,3.523,0,0,0-3.519-3.519h-5.239v27.993h2.879v-12.04h1.52c0.76,0,1.48.44,1.48,1.8v10.24h2.879Zm-5.879-14.76V998.356h1.52a1.35,1.35,0,0,1,1.48,1.44v7.514a1.363,1.363,0,0,1-1.48,1.6h-1.52Zm32.239-13.233h-1.76a1.265,1.265,0,0,0-1.28,1l-3.159,16.114-3.32-16.074a1.258,1.258,0,0,0-1.28-1.039h-1.759v27.993h2.839v-14.44l1.68,7.32c0.16,0.6.48,2.28,2.16,2.28h0.879l2.16-9.6v14.44h2.84V995.677Zm14.681,0v27.393a0.723,0.723,0,0,0,.84.6h2.04V996.8a1.1,1.1,0,0,0-1.16-1.119h-1.72Zm28.039,0h-2.88v16.113l-2.959-14.554c-0.16-.8-0.44-1.559-2.04-1.559h-1.32v27.993h2.88v-15.64l3.079,13.84a1.875,1.875,0,0,0,1.92,1.8h1.32V995.677Zm24.279,27.993h-3.159l-2.52-19.27-2.519,19.27h-3.16l4.239-27.993h1.56a1.422,1.422,0,0,1,1.52,1.519Zm16.841-2.84V996.556a0.915,0.915,0,0,0-.88-0.879h-2v27.993h6.878a1.631,1.631,0,0,0,1.56-.76c0.12-.24.6-1.36,0.92-2.08h-6.479Zm52.078-25.153h-2.879l-2.84,18.633-2.679-17.554a1.037,1.037,0,0,0-.84-1.079h-2.2l4,26.033c0.04,0.24.28,1.96,1.72,1.96h1.44Zm17.6,25.153v-9.72a0.7,0.7,0,0,1,.68-0.68h1.2a1.558,1.558,0,0,0,1.52-.76c0.12-.24.6-1.4,0.919-2.12h-4.319v-8.314a0.651,0.651,0,0,1,.68-0.68h2.32a1.527,1.527,0,0,0,1.519-.8l0.96-2.079h-7.478a0.875,0.875,0,0,0-.88.8v27.194h6.4a1.63,1.63,0,0,0,1.559-.76c0.12-.24.6-1.36,0.92-2.08h-6Zm24,0v-9.72a0.7,0.7,0,0,1,.68-0.68h1.2a1.558,1.558,0,0,0,1.52-.76c0.12-.24.6-1.4,0.92-2.12h-4.319v-8.314a0.651,0.651,0,0,1,.68-0.68h2.319a1.529,1.529,0,0,0,1.52-.8l0.96-2.079h-7.479a0.875,0.875,0,0,0-.88.8v27.194h6.4a1.631,1.631,0,0,0,1.56-.76c0.12-.24.6-1.36,0.92-2.08h-6Zm23.678,0V996.556a0.915,0.915,0,0,0-.88-0.879h-2v27.993h6.88a1.631,1.631,0,0,0,1.56-.76c0.12-.24.6-1.36,0.92-2.08h-6.48Zm21.64-25.433a3.576,3.576,0,0,0-3.6,3.559v21.474a3.621,3.621,0,0,0,3.6,3.52h2.2a3.6,3.6,0,0,0,3.48-3.52V998.956a3.6,3.6,0,0,0-3.48-3.559h-2.2Zm0.8,26.033a1.581,1.581,0,0,1-1.52-1.56V999.476a1.581,1.581,0,0,1,1.52-1.56h0.44a1.528,1.528,0,0,1,1.52,1.56v20.394a1.528,1.528,0,0,1-1.52,1.56h-0.44Zm28.12-25.753h-2.12a0.971,0.971,0,0,0-.92.959l-1.84,10.594-1.84-10.594a0.971,0.971,0,0,0-.92-0.959h-2.12l3.44,16.353v10.8a0.872,0.872,0,0,0,.84.84h2.04v-11.64Z" transform="translate(-727 -995)"/>
  </g>
</svg>
